<svg width="318" height="60" viewBox="0 0 318 60" fill="none" xmlns="http://www.w3.org/2000/svg">
<g clip-path="url(#clip0_80163_2097)">
<path d="M4.95672 0H0V35.7986H4.95672V22.5177C4.95672 20.2709 5.51557 18.4984 6.63326 17.2502C7.75095 16.002 9.2817 15.353 11.1769 15.353C12.8049 15.353 14.1655 15.9521 15.2589 17.1004C16.3523 18.2738 16.9112 19.7466 16.9112 21.5191V35.8236H21.8922V21.5191C21.8922 18.2238 20.9932 15.6276 19.1951 13.6804C17.3971 11.7332 15.0402 10.7596 12.1731 10.7596C11.347 10.7596 10.5209 10.8594 9.71906 11.0841C8.89294 11.3088 8.2369 11.5584 7.70235 11.833C7.16781 12.1076 6.65756 12.4072 6.1959 12.7567C5.73424 13.1062 5.41838 13.3558 5.27259 13.5056C5.1268 13.6554 5.00532 13.7552 4.95672 13.8301V0Z" fill="#F0145A"/>
<path d="M32.9727 0H27.8628V35.7689H32.9727V0Z" fill="#323264"/>
<path d="M63.1113 25.2933L63.3668 22.7383C63.3668 19.3148 62.2427 16.4532 59.9432 14.1538C57.6438 11.8544 54.7823 10.7302 51.3587 10.7302C47.9351 10.7302 44.9714 11.9566 42.5187 14.4093C40.066 16.862 38.8396 19.7746 38.8396 23.2493C38.8396 26.8262 40.1171 29.8921 42.6209 32.447C45.1247 35.002 48.1395 36.2794 51.6142 36.2794C52.9428 36.2794 54.1691 36.075 55.3955 35.7173C56.6218 35.3086 57.6438 34.8998 58.3592 34.491C59.1257 34.0311 59.8921 33.5201 60.5564 32.958C61.2207 32.3959 61.6806 31.9872 61.885 31.7317C62.0894 31.4762 62.2427 31.3229 62.3449 31.1696L59.0235 27.8482L58.257 28.8191C57.746 29.4322 56.8773 30.0454 55.651 30.7097C54.3735 31.374 53.045 31.6806 51.6142 31.6806C49.6214 31.6806 47.9351 31.0674 46.5044 29.7899C45.0736 28.5125 44.2049 27.0306 43.9494 25.2933H63.1113ZM51.3587 15.0736C53.2493 15.0736 54.7823 15.6357 56.0598 16.7087C57.2861 17.8329 58.0526 19.2126 58.3592 20.9499H44.1538C44.6137 19.2126 45.4313 17.8329 46.7088 16.7087C47.9351 15.6357 49.5192 15.0736 51.3587 15.0736Z" fill="#323264"/>
<path d="M86.943 34.2866C86.943 36.5349 86.2787 38.3744 84.8991 39.8052C83.5705 41.1849 81.8843 41.9002 79.7892 41.9002C78.8695 41.9002 77.9497 41.7469 77.081 41.4914C76.2124 41.2359 75.5481 40.9294 74.986 40.5717C74.4239 40.214 73.9129 39.8563 73.4019 39.3964C72.9421 38.9365 72.6355 38.6299 72.4822 38.4766C72.3289 38.3233 72.2267 38.17 72.1245 38.0679L68.8031 41.3892L69.2119 41.9002C69.4674 42.2579 69.9273 42.7178 70.5404 43.2288C71.1536 43.6887 71.869 44.1997 72.6866 44.7106C73.5041 45.1705 74.5261 45.5793 75.8036 45.937C77.081 46.2947 78.4096 46.4991 79.7892 46.4991C83.2639 46.4991 86.1254 45.3238 88.5271 42.9733C90.8776 40.5717 92.0528 37.7102 92.0528 34.2355V11.2412H86.943V13.7961L86.0743 13.0297C85.5123 12.5187 84.6436 12.0077 83.4172 11.4967C82.1909 10.9857 80.8623 10.7302 79.5338 10.7302C76.4168 10.7302 73.7596 11.9055 71.4602 14.3071C69.1608 16.7087 68.0366 19.5702 68.0366 22.9938C68.0366 26.4174 69.1608 29.2789 71.4602 31.6806C73.7596 34.0822 76.4168 35.2574 79.5338 35.2574C80.4024 35.2574 81.22 35.1552 82.0887 34.9509C82.9062 34.6954 83.5705 34.4399 84.1326 34.1844C84.6947 33.9289 85.2057 33.6223 85.6656 33.2646C86.1254 32.9069 86.4831 32.6514 86.5853 32.5492L86.943 32.1915V34.2866ZM73.1465 22.9938C73.1465 20.8477 73.8107 19.0593 75.1904 17.5774C76.57 16.0956 78.2052 15.3291 80.0447 15.3291C81.8843 15.3291 83.5194 16.0956 84.8991 17.5774C86.2276 19.0593 86.943 20.8477 86.943 22.9938C86.943 25.14 86.2276 26.9284 84.8991 28.4103C83.5194 29.8921 81.8843 30.6586 80.0447 30.6586C78.2052 30.6586 76.57 29.8921 75.1904 28.4103C73.8107 26.9284 73.1465 25.14 73.1465 22.9938Z" fill="#323264"/>
<path d="M118.724 35.7684V19.9279C118.724 17.3219 117.753 15.1247 115.862 13.3873C113.972 11.5989 111.519 10.7302 108.504 10.7302C107.329 10.7302 106.154 10.8835 105.03 11.1901C103.905 11.5478 102.986 11.9055 102.321 12.3143C101.657 12.7231 100.993 13.1829 100.38 13.745C99.7664 14.256 99.4087 14.6137 99.2043 14.8181C99.051 15.0225 98.8977 15.1758 98.7955 15.3291L102.117 18.6505L102.781 17.7818C103.19 17.2197 103.905 16.7087 104.978 16.1467C106.051 15.5846 107.227 15.3291 108.504 15.3291C109.986 15.3291 111.212 15.789 112.183 16.6576C113.154 17.5263 113.614 18.6505 113.614 19.9279L104.672 21.4609C102.475 21.8186 100.686 22.6872 99.4598 24.0669C98.1823 25.4466 97.5181 27.1328 97.5181 29.1256C97.5181 31.0163 98.3356 32.6514 99.9708 34.0822C101.657 35.564 103.701 36.2794 106.205 36.2794C107.073 36.2794 107.891 36.1772 108.709 35.9217C109.577 35.7173 110.242 35.4618 110.804 35.2064C111.366 34.9509 111.877 34.6443 112.337 34.2866C112.796 33.9289 113.103 33.6734 113.307 33.5712C113.461 33.4179 113.563 33.2646 113.614 33.2135V35.7684H118.724ZM106.971 31.6806C105.643 31.6806 104.57 31.374 103.803 30.7608C102.986 30.1476 102.628 29.4322 102.628 28.6147C102.628 27.746 102.883 26.9795 103.445 26.4174C104.008 25.8554 104.774 25.4466 105.694 25.2933L113.614 24.0158V24.5268C113.614 26.8262 113.052 28.5636 111.877 29.841C110.701 31.0674 109.066 31.6806 106.971 31.6806Z" fill="#323264"/>
<path d="M130 0H124.89V35.7689H130V0Z" fill="#323264"/>
<path d="M0 53.1185H1.59915V58.7253H5.06396V60.0283H0V53.1185Z" fill="#323264"/>
<path d="M15.5016 58.5477H12.2934L11.6814 60.0283H10.0428L13.1226 53.1185H14.702L17.7917 60.0283H16.1136L15.5016 58.5477ZM14.9982 57.3335L13.9025 54.688L12.8067 57.3335H14.9982Z" fill="#323264"/>
<path d="M33.5121 53.1185L31.2516 60.0283H29.534L28.0138 55.3494L26.4443 60.0283H24.7366L22.4662 53.1185H24.1245L25.6842 57.9751L27.313 53.1185H28.7937L30.3731 58.0146L31.9821 53.1185H33.5121Z" fill="#323264"/>
<path d="M50.5232 60.1468C49.819 60.1468 49.1807 59.9954 48.6082 59.6927C48.0422 59.3834 47.5947 58.959 47.2657 58.4193C46.9432 57.8731 46.782 57.2578 46.782 56.5734C46.782 55.889 46.9432 55.277 47.2657 54.7373C47.5947 54.1911 48.0422 53.7667 48.6082 53.464C49.1807 53.1547 49.8223 53 50.5331 53C51.1319 53 51.6716 53.1053 52.152 53.3159C52.6389 53.5265 53.0469 53.8292 53.376 54.224L52.3494 55.1717C51.8821 54.6321 51.303 54.3622 50.612 54.3622C50.1843 54.3622 49.8026 54.4577 49.467 54.6485C49.1313 54.8328 48.8681 55.0927 48.6773 55.4283C48.493 55.764 48.4009 56.1456 48.4009 56.5734C48.4009 57.0012 48.493 57.3828 48.6773 57.7185C48.8681 58.0541 49.1313 58.3173 49.467 58.5082C49.8026 58.6924 50.1843 58.7846 50.612 58.7846C51.303 58.7846 51.8821 58.5115 52.3494 57.9653L53.376 58.9129C53.0469 59.3143 52.6389 59.6203 52.152 59.8309C51.665 60.0415 51.1221 60.1468 50.5232 60.1468Z" fill="#323264"/>
<path d="M62.5933 60.1468C61.876 60.1468 61.2278 59.9922 60.6487 59.6829C60.0761 59.3736 59.6253 58.9491 59.2963 58.4095C58.9738 57.8632 58.8126 57.2512 58.8126 56.5734C58.8126 55.8956 58.9738 55.2868 59.2963 54.7472C59.6253 54.201 60.0761 53.7733 60.6487 53.464C61.2278 53.1547 61.876 53 62.5933 53C63.3106 53 63.9555 53.1547 64.5281 53.464C65.1006 53.7733 65.5514 54.201 65.8804 54.7472C66.2095 55.2868 66.374 55.8956 66.374 56.5734C66.374 57.2512 66.2095 57.8632 65.8804 58.4095C65.5514 58.9491 65.1006 59.3736 64.5281 59.6829C63.9555 59.9922 63.3106 60.1468 62.5933 60.1468ZM62.5933 58.7846C63.0013 58.7846 63.3698 58.6924 63.6989 58.5082C64.0279 58.3173 64.2846 58.0541 64.4688 57.7185C64.6597 57.3828 64.7551 57.0012 64.7551 56.5734C64.7551 56.1456 64.6597 55.764 64.4688 55.4283C64.2846 55.0927 64.0279 54.8328 63.6989 54.6485C63.3698 54.4577 63.0013 54.3622 62.5933 54.3622C62.1853 54.3622 61.8168 54.4577 61.4877 54.6485C61.1587 54.8328 60.8987 55.0927 60.7079 55.4283C60.5236 55.764 60.4315 56.1456 60.4315 56.5734C60.4315 57.0012 60.5236 57.3828 60.7079 57.7185C60.8987 58.0541 61.1587 58.3173 61.4877 58.5082C61.8168 58.6924 62.1853 58.7846 62.5933 58.7846Z" fill="#323264"/>
<path d="M78.7995 60.0283L78.7896 55.8824L76.7561 59.2979H76.0355L74.0119 55.9713V60.0283H72.5115V53.1185H73.8342L76.4205 57.4125L78.9673 53.1185H80.2802L80.2999 60.0283H78.7995Z" fill="#323264"/>
<path d="M89.8659 53.1185C90.478 53.1185 91.0077 53.2205 91.4552 53.4245C91.9093 53.6285 92.2581 53.918 92.5016 54.2931C92.7451 54.6682 92.8668 55.1125 92.8668 55.6258C92.8668 56.1325 92.7451 56.5767 92.5016 56.9584C92.2581 57.3335 91.9093 57.623 91.4552 57.8271C91.0077 58.0245 90.478 58.1232 89.8659 58.1232H88.4741V60.0283H86.8749V53.1185H89.8659ZM89.7771 56.8202C90.2575 56.8202 90.6227 56.7182 90.8728 56.5142C91.1229 56.3036 91.2479 56.0074 91.2479 55.6258C91.2479 55.2375 91.1229 54.9414 90.8728 54.7373C90.6227 54.5268 90.2575 54.4215 89.7771 54.4215H88.4741V56.8202H89.7771Z" fill="#323264"/>
<path d="M103.148 58.5477H99.9396L99.3276 60.0283H97.6889L100.769 53.1185H102.348L105.438 60.0283H103.76L103.148 58.5477ZM102.644 57.3335L101.549 54.688L100.453 57.3335H102.644Z" fill="#323264"/>
<path d="M117.428 53.1185V60.0283H116.115L112.67 55.8331V60.0283H111.09V53.1185H112.413L115.848 57.3137V53.1185H117.428Z" fill="#323264"/>
<path d="M127.315 57.5803V60.0283H125.716V57.5605L123.041 53.1185H124.739L126.585 56.1884L128.43 53.1185H130L127.315 57.5803Z" fill="#323264"/>
<path fill-rule="evenodd" clip-rule="evenodd" d="M149.175 0H155L139.825 47H134L149.175 0Z" fill="#F0145A"/>
<path d="M169.188 15.92C171.66 15.92 173.556 16.544 174.876 17.792C176.196 19.016 176.856 20.84 176.856 23.264V35H174.408V32.048C173.832 33.032 172.98 33.8 171.852 34.352C170.748 34.904 169.428 35.18 167.892 35.18C165.78 35.18 164.1 34.676 162.852 33.668C161.604 32.66 160.98 31.328 160.98 29.672C160.98 28.064 161.556 26.768 162.708 25.784C163.884 24.8 165.744 24.308 168.288 24.308H174.3V23.156C174.3 21.524 173.844 20.288 172.932 19.448C172.02 18.584 170.688 18.152 168.936 18.152C167.736 18.152 166.584 18.356 165.48 18.764C164.376 19.148 163.428 19.688 162.636 20.384L161.484 18.476C162.444 17.66 163.596 17.036 164.94 16.604C166.284 16.148 167.7 15.92 169.188 15.92ZM168.288 33.164C169.728 33.164 170.964 32.84 171.996 32.192C173.028 31.52 173.796 30.56 174.3 29.312V26.216H168.36C165.12 26.216 163.5 27.344 163.5 29.6C163.5 30.704 163.92 31.58 164.76 32.228C165.6 32.852 166.776 33.164 168.288 33.164ZM193.554 15.92C195.33 15.92 196.938 16.328 198.378 17.144C199.818 17.936 200.946 19.064 201.762 20.528C202.578 21.992 202.986 23.66 202.986 25.532C202.986 27.404 202.578 29.072 201.762 30.536C200.946 32 199.818 33.14 198.378 33.956C196.938 34.772 195.33 35.18 193.554 35.18C191.97 35.18 190.542 34.844 189.27 34.172C188.022 33.5 187.014 32.528 186.246 31.256V35H183.798V8.288H186.354V19.664C187.146 18.44 188.154 17.516 189.378 16.892C190.626 16.244 192.018 15.92 193.554 15.92ZM193.374 32.912C194.694 32.912 195.894 32.612 196.974 32.012C198.054 31.388 198.894 30.512 199.494 29.384C200.118 28.256 200.43 26.972 200.43 25.532C200.43 24.092 200.118 22.808 199.494 21.68C198.894 20.552 198.054 19.688 196.974 19.088C195.894 18.464 194.694 18.152 193.374 18.152C192.03 18.152 190.818 18.464 189.738 19.088C188.682 19.688 187.842 20.552 187.218 21.68C186.618 22.808 186.318 24.092 186.318 25.532C186.318 26.972 186.618 28.256 187.218 29.384C187.842 30.512 188.682 31.388 189.738 32.012C190.818 32.612 192.03 32.912 193.374 32.912ZM215.937 35.18C214.113 35.18 212.469 34.772 211.005 33.956C209.541 33.116 208.389 31.964 207.549 30.5C206.709 29.036 206.289 27.38 206.289 25.532C206.289 23.684 206.709 22.028 207.549 20.564C208.389 19.1 209.541 17.96 211.005 17.144C212.469 16.328 214.113 15.92 215.937 15.92C217.761 15.92 219.405 16.328 220.869 17.144C222.333 17.96 223.473 19.1 224.289 20.564C225.129 22.028 225.549 23.684 225.549 25.532C225.549 27.38 225.129 29.036 224.289 30.5C223.473 31.964 222.333 33.116 220.869 33.956C219.405 34.772 217.761 35.18 215.937 35.18ZM215.937 32.912C217.281 32.912 218.481 32.612 219.537 32.012C220.617 31.388 221.457 30.512 222.057 29.384C222.657 28.256 222.957 26.972 222.957 25.532C222.957 24.092 222.657 22.808 222.057 21.68C221.457 20.552 220.617 19.688 219.537 19.088C218.481 18.464 217.281 18.152 215.937 18.152C214.593 18.152 213.381 18.464 212.301 19.088C211.245 19.688 210.405 20.552 209.781 21.68C209.181 22.808 208.881 24.092 208.881 25.532C208.881 26.972 209.181 28.256 209.781 29.384C210.405 30.512 211.245 31.388 212.301 32.012C213.381 32.612 214.593 32.912 215.937 32.912ZM247.831 16.064V35H245.383V31.544C244.711 32.696 243.787 33.596 242.611 34.244C241.435 34.868 240.091 35.18 238.579 35.18C236.107 35.18 234.151 34.496 232.711 33.128C231.295 31.736 230.587 29.708 230.587 27.044V16.064H233.143V26.792C233.143 28.784 233.635 30.296 234.619 31.328C235.603 32.36 237.007 32.876 238.831 32.876C240.823 32.876 242.395 32.276 243.547 31.076C244.699 29.852 245.275 28.16 245.275 26V16.064H247.831ZM264.962 33.848C264.482 34.28 263.882 34.616 263.162 34.856C262.466 35.072 261.734 35.18 260.966 35.18C259.19 35.18 257.822 34.7 256.862 33.74C255.902 32.78 255.422 31.424 255.422 29.672V18.224H252.038V16.064H255.422V11.924H257.978V16.064H263.738V18.224H257.978V29.528C257.978 30.656 258.254 31.52 258.806 32.12C259.382 32.696 260.198 32.984 261.254 32.984C261.782 32.984 262.286 32.9 262.766 32.732C263.27 32.564 263.702 32.324 264.062 32.012L264.962 33.848ZM296.101 16.064V35H293.653V31.544C292.981 32.696 292.057 33.596 290.881 34.244C289.705 34.868 288.361 35.18 286.849 35.18C284.377 35.18 282.421 34.496 280.981 33.128C279.565 31.736 278.857 29.708 278.857 27.044V16.064H281.413V26.792C281.413 28.784 281.905 30.296 282.889 31.328C283.873 32.36 285.277 32.876 287.101 32.876C289.093 32.876 290.665 32.276 291.817 31.076C292.969 29.852 293.545 28.16 293.545 26V16.064H296.101ZM308.335 35.18C306.799 35.18 305.323 34.964 303.907 34.532C302.515 34.076 301.423 33.512 300.631 32.84L301.783 30.824C302.575 31.448 303.571 31.964 304.771 32.372C305.971 32.756 307.219 32.948 308.515 32.948C310.243 32.948 311.515 32.684 312.331 32.156C313.171 31.604 313.591 30.836 313.591 29.852C313.591 29.156 313.363 28.616 312.907 28.232C312.451 27.824 311.875 27.524 311.179 27.332C310.483 27.116 309.559 26.912 308.407 26.72C306.871 26.432 305.635 26.144 304.699 25.856C303.763 25.544 302.959 25.028 302.287 24.308C301.639 23.588 301.315 22.592 301.315 21.32C301.315 19.736 301.975 18.44 303.295 17.432C304.615 16.424 306.451 15.92 308.803 15.92C310.027 15.92 311.251 16.088 312.475 16.424C313.699 16.736 314.707 17.156 315.499 17.684L314.383 19.736C312.823 18.656 310.963 18.116 308.803 18.116C307.171 18.116 305.935 18.404 305.095 18.98C304.279 19.556 303.871 20.312 303.871 21.248C303.871 21.968 304.099 22.544 304.555 22.976C305.035 23.408 305.623 23.732 306.319 23.948C307.015 24.14 307.975 24.344 309.199 24.56C310.711 24.848 311.923 25.136 312.835 25.424C313.747 25.712 314.527 26.204 315.175 26.9C315.823 27.596 316.147 28.556 316.147 29.78C316.147 31.436 315.451 32.756 314.059 33.74C312.691 34.7 310.783 35.18 308.335 35.18Z" fill="#323264"/>
</g>
<defs>
<clipPath id="clip0_80163_2097">
<rect width="318" height="60" fill="white"/>
</clipPath>
</defs>
</svg>
